<svg width="48" height="48" viewBox="0 0 48 48" fill="none" xmlns="http://www.w3.org/2000/svg">
<path d="M0 0H48V48H0V0Z" fill="white"/>
<path d="M30.5 40.5C30.5 41.6457 29.4516 43.1445 26.6771 44.4451C24.0221 45.6896 20.2488 46.5 16 46.5C11.7512 46.5 7.97793 45.6896 5.32294 44.4451C2.54839 43.1445 1.5 41.6457 1.5 40.5C1.5 39.3543 2.54839 37.8555 5.32294 36.5549C7.97793 35.3104 11.7512 34.5 16 34.5C20.2488 34.5 24.0221 35.3104 26.6771 36.5549C29.4516 37.8555 30.5 39.3543 30.5 40.5Z" stroke="#152C5B" stroke-width="3"/>
<path d="M28.5 12.0615C28.5 15.1278 27.0033 22.1632 24.5047 28.4768C23.262 31.617 21.8137 34.4673 20.2574 36.5045C18.6509 38.6076 17.1987 39.5 16 39.5C14.8013 39.5 13.3491 38.6076 11.7426 36.5045C10.1863 34.4673 8.73795 31.617 7.49526 28.4768C4.99672 22.1632 3.5 15.1278 3.5 12.0615C3.5 6.43056 8.87885 1.5 16 1.5C23.1212 1.5 28.5 6.43056 28.5 12.0615Z" fill="white" stroke="#152C5B" stroke-width="3"/>
<circle cx="16" cy="15" r="4.5" stroke="#FF498B" stroke-width="3"/>
</svg>
