<svg width="38" height="38" viewBox="0 0 38 38" fill="none" xmlns="http://www.w3.org/2000/svg">
<path d="M0 0H38V38H0V0Z" fill="white"/>
<path d="M6.81929 16.0737C7.19565 15.5562 7.79689 15.25 8.43676 15.25H29.5632C30.2031 15.25 30.8044 15.5562 31.1807 16.0737L33.7262 19.5737C34.6876 20.8956 33.7433 22.75 32.1087 22.75H5.89131C4.25674 22.75 3.31243 20.8956 4.27384 19.5737L6.81929 16.0737Z" stroke="#152C5B" stroke-width="2"/>
<mask id="path-3-inside-1" fill="white">
<path d="M32.75 22.5625C33.0261 22.5625 33.25 22.7864 33.25 23.0625L33.25 33.8438C33.25 35.4833 31.9208 36.8125 30.2812 36.8125C28.6417 36.8125 27.3125 35.4833 27.3125 33.8437L27.3125 23.0625C27.3125 22.7864 27.5364 22.5625 27.8125 22.5625L32.75 22.5625Z"/>
</mask>
<path d="M32.75 22.5625C33.0261 22.5625 33.25 22.7864 33.25 23.0625L33.25 33.8438C33.25 35.4833 31.9208 36.8125 30.2812 36.8125C28.6417 36.8125 27.3125 35.4833 27.3125 33.8437L27.3125 23.0625C27.3125 22.7864 27.5364 22.5625 27.8125 22.5625L32.75 22.5625Z" stroke="#152C5B" stroke-width="4" mask="url(#path-3-inside-1)"/>
<mask id="path-4-inside-2" fill="white">
<path d="M10.1875 22.5625C10.4636 22.5625 10.6875 22.7864 10.6875 23.0625L10.6875 33.8438C10.6875 35.4833 9.35834 36.8125 7.71875 36.8125C6.07915 36.8125 4.75 35.4833 4.75 33.8437L4.75 23.0625C4.75 22.7864 4.97386 22.5625 5.25 22.5625L10.1875 22.5625Z"/>
</mask>
<path d="M10.1875 22.5625C10.4636 22.5625 10.6875 22.7864 10.6875 23.0625L10.6875 33.8438C10.6875 35.4833 9.35834 36.8125 7.71875 36.8125C6.07915 36.8125 4.75 35.4833 4.75 33.8437L4.75 23.0625C4.75 22.7864 4.97386 22.5625 5.25 22.5625L10.1875 22.5625Z" stroke="#152C5B" stroke-width="4" mask="url(#path-4-inside-2)"/>
<path d="M13.0625 9.5V14.25" stroke="#152C5B" stroke-width="2" stroke-linecap="round" stroke-linejoin="round"/>
<mask id="path-6-inside-3" fill="white">
<path d="M16.125 2.375C16.4011 2.375 16.625 2.59886 16.625 2.875L16.625 7.125C16.625 9.09252 15.03 10.6875 13.0625 10.6875C11.095 10.6875 9.5 9.09252 9.5 7.125L9.5 2.875C9.5 2.59886 9.72386 2.375 10 2.375L16.125 2.375Z"/>
</mask>
<path d="M16.125 2.375C16.4011 2.375 16.625 2.59886 16.625 2.875L16.625 7.125C16.625 9.09252 15.03 10.6875 13.0625 10.6875C11.095 10.6875 9.5 9.09252 9.5 7.125L9.5 2.875C9.5 2.59886 9.72386 2.375 10 2.375L16.125 2.375Z" stroke="#FF498B" stroke-width="4" mask="url(#path-6-inside-3)"/>
<path d="M23.75 9.5V14.25" stroke="#152C5B" stroke-width="2" stroke-linecap="round" stroke-linejoin="round"/>
<mask id="path-8-inside-4" fill="white">
<path d="M26.8125 2.375C27.0886 2.375 27.3125 2.59886 27.3125 2.875L27.3125 7.125C27.3125 9.09252 25.7175 10.6875 23.75 10.6875C21.7825 10.6875 20.1875 9.09252 20.1875 7.125L20.1875 2.875C20.1875 2.59886 20.4114 2.375 20.6875 2.375L26.8125 2.375Z"/>
</mask>
<path d="M26.8125 2.375C27.0886 2.375 27.3125 2.59886 27.3125 2.875L27.3125 7.125C27.3125 9.09252 25.7175 10.6875 23.75 10.6875C21.7825 10.6875 20.1875 9.09252 20.1875 7.125L20.1875 2.875C20.1875 2.59886 20.4114 2.375 20.6875 2.375L26.8125 2.375Z" stroke="#FF498B" stroke-width="4" mask="url(#path-8-inside-4)"/>
</svg>
