<svg width="32" height="29" viewBox="0 0 32 29" fill="none" xmlns="http://www.w3.org/2000/svg">
<path d="M15.0489 0.927296C15.3483 0.00598574 16.6517 0.00598407 16.9511 0.927295L19.8167 9.74695C19.9506 10.159 20.3346 10.4379 20.7678 10.4379H30.0413C31.0101 10.4379 31.4128 11.6776 30.6291 12.247L23.1267 17.6978C22.7762 17.9524 22.6295 18.4038 22.7634 18.8158L25.6291 27.6355C25.9284 28.5568 24.874 29.3229 24.0902 28.7535L16.5878 23.3027C16.2373 23.048 15.7627 23.048 15.4122 23.3027L7.90976 28.7535C7.12605 29.3229 6.07157 28.5568 6.37092 27.6355L9.2366 18.8158C9.37048 18.4038 9.22382 17.9524 8.87333 17.6978L1.37088 12.247C0.587169 11.6776 0.989944 10.4379 1.95867 10.4379H11.2322C11.6654 10.4379 12.0494 10.159 12.1833 9.74696L15.0489 0.927296Z" fill="#FFCC47"/>
</svg>
