<svg width="48" height="48" viewBox="0 0 48 48" fill="none" xmlns="http://www.w3.org/2000/svg">
<path d="M0 0H48V48H0V0Z" fill="white"/>
<mask id="path-2-inside-1" fill="white">
<path fill-rule="evenodd" clip-rule="evenodd" d="M16.1904 10C15.4811 10 14.8249 10.3757 14.4657 10.9874L12.1098 15H8C3.58172 15 0 18.5817 0 23V37C0 41.4183 3.58172 45 8 45H40C44.4183 45 48 41.4183 48 37V23C48 18.5817 44.4183 15 40 15H34.9167L32.5788 10.9923C32.2204 10.3778 31.5626 10 30.8513 10H16.1904Z"/>
</mask>
<path d="M14.4657 10.9874L17.0528 12.5063V12.5063L14.4657 10.9874ZM12.1098 15V18H13.8273L14.6969 16.5189L12.1098 15ZM34.9167 15L32.3253 16.5116L33.1936 18H34.9167V15ZM32.5788 10.9923L29.9875 12.5039L29.9875 12.5039L32.5788 10.9923ZM17.0528 12.5063C16.8732 12.8121 16.5451 13 16.1904 13V7C14.4171 7 12.7765 7.93926 11.8787 9.46847L17.0528 12.5063ZM14.6969 16.5189L17.0528 12.5063L11.8787 9.46847L9.52279 13.4811L14.6969 16.5189ZM8 18H12.1098V12H8V18ZM3 23C3 20.2386 5.23858 18 8 18V12C1.92487 12 -3 16.9249 -3 23H3ZM3 37V23H-3V37H3ZM8 42C5.23858 42 3 39.7614 3 37H-3C-3 43.0751 1.92487 48 8 48V42ZM40 42H8V48H40V42ZM45 37C45 39.7614 42.7614 42 40 42V48C46.0751 48 51 43.0751 51 37H45ZM45 23V37H51V23H45ZM40 18C42.7614 18 45 20.2386 45 23H51C51 16.9249 46.0751 12 40 12V18ZM34.9167 18H40V12H34.9167V18ZM29.9875 12.5039L32.3253 16.5116L37.508 13.4884L35.1702 9.48064L29.9875 12.5039ZM30.8513 13C30.4956 13 30.1667 12.8111 29.9875 12.5039L35.1702 9.48065C34.2741 7.94455 32.6296 7 30.8513 7V13ZM16.1904 13H30.8513V7H16.1904V13Z" fill="#152C5B" mask="url(#path-2-inside-1)"/>
<path d="M33 22H39" stroke="#152C5B" stroke-width="3" stroke-linecap="round" stroke-linejoin="round"/>
<circle cx="23" cy="30" r="6.5" stroke="#FF498B" stroke-width="3"/>
</svg>
